
        <svg xmlns="http://www.w3.org/2000/svg" xmlns:xlink="http://www.w3.org/1999/xlink" version="1.1" width="3187.5" 
        height="629.708951877485" viewBox="0 0 3187.5 629.708951877485">
			
			<g transform="scale(9.375) translate(10, 10)">
				<defs id="SvgjsDefs1120"></defs><g id="SvgjsG1121" featureKey="Rs8Ttr-0" transform="matrix(1.0454449342397494,0,0,1.0454449342397494,-2.260825418305193,-28.74973369756514)" fill="#fff685"><path xmlns="http://www.w3.org/2000/svg" d="M53.2,53.6c0,0,33.8-2.3,43.1-26.1C96.3,27.5,110.3,53.6,53.2,53.6z M56.8,55c37.7,11.1,34.6-6.6,34.6-6.6  C81.9,56.2,56.8,55,56.8,55z M56.2,56.7c27.9,18,29.6,2.9,29.6,2.9C76.2,63.7,56.2,56.7,56.2,56.7z M55.8,58.7  c16.1,19.7,20.9,9.1,20.9,9.1C68.7,68.4,55.8,58.7,55.8,58.7z M54.9,60.9c6.2,16.6,11.7,10.7,11.7,10.7  C61.3,70.3,54.9,60.9,54.9,60.9z M46.8,53.6c0,0-33.8-2.3-43.1-26.1C3.7,27.5-10.4,53.6,46.8,53.6z M8.5,48.4c0,0-3.1,17.7,34.6,6.6  C43.1,55,18,56.2,8.5,48.4z M14.1,59.7c0,0,1.7,15.1,29.6-2.9C43.7,56.7,23.7,63.7,14.1,59.7z M23.3,67.7c0,0,4.8,10.6,20.9-9.1  C44.2,58.7,31.2,68.4,23.3,67.7z M33.3,71.6c0,0,5.5,5.9,11.7-10.7C45,60.9,38.7,70.3,33.3,71.6z"></path></g><g id="SvgjsG1122" featureKey="S4EmfQ-0" transform="matrix(2.6295031083313876,0,0,2.6295031083313876,117.63344820557758,-15.348408359393247)" fill="#f75990"><path d="M7.16 12.34 l-0.84 -2.7 l2.34 0 l2.36 7.6 l2.78 -7.6 l2.2 0 l-3.64 10.36 l-2.78 0 l-1.3 -4.1 l-1.06 4.1 l-2.74 0 l-3.58 -10.36 l2.22 0 l2.68 7.6 z M21.34 16.28 l0 1.64 l6.5 0 l0 2.08 l-8.54 0 l0 -10.36 l8.16 0 l0 2.06 l-6.12 0 l0 2.52 q0.62 -0.36 1.5 -0.5 q0.68 -0.1 1.74 -0.1 l1.52 0 l0 2.06 l-1.52 0 q-1.38 0 -2 0.12 q-0.54 0.1 -1.24 0.48 z M33.8 11.7 l0 2.36 q0.62 -0.36 1.5 -0.5 q0.68 -0.1 1.74 -0.1 l1.06 0 q0.54 0 0.79 -0.22 t0.25 -0.66 t-0.28 -0.66 t-0.76 -0.22 l-4.3 0 z M33.8 16.16 l0 1.76 l4.3 0 q0.74 0 1.12 -0.22 q0.5 -0.3 0.5 -0.98 q0 -0.58 -0.39 -0.87 t-1.23 -0.29 l-1.06 0 q-1.38 0 -2 0.12 q-0.54 0.1 -1.24 0.48 z M41.779999999999994 16.759999999999998 q0 1.52 -0.98 2.38 t-2.7 0.86 l-6.36 0 l0 -10.36 l6.36 0 q0.84 0 1.56 0.37 t1.15 1.04 t0.43 1.51 q0 1.16 -0.68 1.78 q0.58 0.34 0.9 0.99 t0.32 1.43 z M47.81999999999999 16.28 l0 3.72 l-2.04 0 l0 -10.36 l7.76 0 l0 2.06 l-5.72 0 l0 2.52 q0.62 -0.36 1.5 -0.5 q0.68 -0.1 1.74 -0.1 l1.12 0 l0 2.06 l-1.12 0 q-1.38 0 -2 0.12 q-0.54 0.1 -1.24 0.48 z M64.97999999999999 20 l-7.64 0 l0 -10.36 l2.14 0 l0 8.28 l5.5 0 l0 2.08 z M76.96 9.64 l-4.28 6.18 l0 4.18 l-2.04 0 l0 -4.18 l-4.36 -6.18 l2.6 0 l2.76 4.08 l2.84 -4.08 l2.48 0 z"></path></g>
			</g>
		</svg>
	