
		<svg xmlns="http://www.w3.org/2000/svg" xmlns:xlink="http://www.w3.org/1999/xlink" version="1.1" width="3018.8205771643666" height="611.6687578419071">
			<rect fill="#0049b7" width="3018.8205771643666" height="611.6687578419071"/>
			<g transform="scale(0.9410288582183187) translate(10, 10)">
				

<g id="1598891050021" rel="symbol">
	<path class="st0" d="M594,349.6c0,0,331.3-22.5,422.4-255.8C1016.4,93.8,1153.6,349.6,594,349.6z M629.3,363.3   c369.5,108.8,339.1-64.7,339.1-64.7C875.3,375,629.3,363.3,629.3,363.3z M623.4,379.9c273.4,176.4,290.1,28.4,290.1,28.4   C819.4,448.5,623.4,379.9,623.4,379.9z M619.5,399.5c157.8,193.1,204.8,89.2,204.8,89.2C745.9,494.6,619.5,399.5,619.5,399.5z    M610.6,421.1C671.4,583.8,725.3,526,725.3,526C673.4,513.2,610.6,421.1,610.6,421.1z M531.2,349.6c0,0-331.3-22.5-422.4-255.8   C108.8,93.8-29.4,349.6,531.2,349.6z M155.9,298.6c0,0-30.4,173.5,339.1,64.7C495,363.3,249,375,155.9,298.6z M210.7,409.3   c0,0,16.7,148,290.1-28.4C500.9,379.9,304.8,448.5,210.7,409.3z M300.9,487.8c0,0,47,103.9,204.8-89.2   C505.8,399.5,378.3,494.6,300.9,487.8z M398.9,526c0,0,53.9,57.8,114.7-104.9C513.6,421.1,451.9,513.2,398.9,526z" style="fill: #FFF685;"/>
</g>
<g id="1598891047527" rel="main_text">
	<path class="st1" d="M1373.1,254.1l-20.7-66.6h57.7l58.2,187.4l68.5-187.4h54.2l-89.7,255.4h-68.5l-32-101.1l-26.1,101.1H1307   l-88.3-255.4h54.7l66.1,187.4L1373.1,254.1z M1722.6,351.2v40.4h160.2v51.3h-210.5V187.5h201.2v50.8h-150.9v62.1   c10.2-5.9,22.5-10,37-12.3c11.2-1.6,25.5-2.5,42.9-2.5h37.5v50.8h-37.5c-22.7,0-39.1,1-49.3,3   C1744.3,341,1734.1,344.9,1722.6,351.2z M2029.8,238.3v58.2c10.2-5.9,22.5-10,37-12.3c11.2-1.6,25.5-2.5,42.9-2.5h26.1   c8.9,0,15.4-1.8,19.5-5.4c4.1-3.6,6.2-9,6.2-16.3s-2.3-12.7-6.9-16.3s-10.8-5.4-18.7-5.4H2029.8z M2029.8,348.2v43.4h106   c12.2,0,21.4-1.8,27.6-5.4c8.2-4.9,12.3-13,12.3-24.2c0-9.5-3.2-16.7-9.6-21.4c-6.4-4.8-16.5-7.1-30.3-7.1h-26.1   c-22.7,0-39.1,1-49.3,3C2051.5,338,2041.3,342,2029.8,348.2z M2226.5,363c0,25-8.1,44.5-24.2,58.7c-16.1,14.1-38.3,21.2-66.6,21.2   H1979V187.5h156.8c13.8,0,26.6,3,38.5,9.1c11.8,6.1,21.3,14.6,28.3,25.6c7.1,11,10.6,23.4,10.6,37.2c0,19.1-5.6,33.7-16.8,43.9   c9.5,5.6,16.9,13.7,22.2,24.4C2223.9,338.5,2226.5,350.2,2226.5,363z M2375.4,351.2v91.7h-50.3V187.5h191.3v50.8h-141v62.1   c10.2-5.9,22.5-10,37-12.3c11.2-1.6,25.5-2.5,42.9-2.5h27.6v50.8h-27.6c-22.7,0-39.1,1-49.3,3   C2397.1,341,2386.9,344.9,2375.4,351.2z M2798.4,442.9h-188.3V187.5h52.8v204.1h135.6V442.9z M3093.8,187.5l-105.5,152.3v103H2938   v-103l-107.5-152.3h64.1l68,100.6l70-100.6H3093.8z" style="fill: #F75990;"/>
</g>

			</g>
		</svg>
	